<?xml version="1.0" encoding="utf-8"?>
<!-- Generator: Adobe Illustrator 28.0.0, SVG Export Plug-In . SVG Version: 6.00 Build 0)  -->
<svg version="1.1" id="圖層_1" xmlns="http://www.w3.org/2000/svg" xmlns:xlink="http://www.w3.org/1999/xlink" x="0px" y="0px"
	 viewBox="0 0 231.753 266.434" style="enable-background:new 0 0 231.753 266.434;" xml:space="preserve">
<style type="text/css">
	.st0{fill:#091A23;}
	.st1{fill:#0A1620;}
	.st2{fill:#08141E;}
	.st3{fill:#0A1921;}
	.st4{fill:#07151F;}
	.st5{fill:#05141E;}
	.st6{fill:#0B1820;}
	.st7{fill:#06151F;}
	.st8{fill:#071721;}
	.st9{fill:#0A1A22;}
	.st10{fill:#05121C;}
	.st11{fill:#0D1923;}
	.st12{fill:#0A1A23;}
	.st13{fill:#091720;}
	.st14{fill:#06101B;}
	.st15{fill:#07131E;}
	.st16{fill:#06111C;}
	.st17{fill:#0A131E;}
	.st18{fill:#051019;}
	.st19{fill:#0B1720;}
	.st20{fill:#05141D;}
	.st21{fill:#06141C;}
	.st22{fill:#081621;}
	.st23{fill:#07141C;}
	.st24{fill:#0A151E;}
	.st25{fill:#07131D;}
	.st26{fill:#0A171F;}
	.st27{fill:#07141F;}
	.st28{fill:#09101B;}
	.st29{fill:#09131C;}
	.st30{fill:#06171E;}
	.st31{fill:#111A27;}
	.st32{fill:#021E35;}
	.st33{fill:#0C1821;}
	.st34{fill:#061621;}
	.st35{fill:#8E97A1;}
	.st36{fill:#08131A;}
	.st37{fill:#09171F;}
	.st38{fill:#080C16;}
	.st39{fill:#0C1622;}
	.st40{fill:#0B171F;}
	.st41{fill:#0A141E;}
	.st42{fill:#111922;}
	.st43{fill:#0A1924;}
	.st44{fill:#0C141F;}
	.st45{fill:#0B1521;}
	.st46{fill:#101A25;}
	.st47{fill:#0A151D;}
	.st48{fill:#091219;}
	.st49{fill:#0D1B25;}
	.st50{fill:#0D151A;}
	.st51{fill:#040D18;}
	.st52{fill:#142029;}
	.st53{fill:#0E212E;}
	.st54{fill:#151E27;}
	.st55{fill:#0A1523;}
	.st56{fill:#0E1C25;}
	.st57{fill:#8F97A1;}
	.st58{fill:#0A1922;}
	.st59{fill:#939BA2;}
	.st60{fill:#121A24;}
	.st61{fill:#10141D;}
	.st62{fill:#1B222B;}
	.st63{fill:#131D25;}
	.st64{fill:#090C12;}
	.st65{fill:#022642;}
	.st66{fill:#0F1A20;}
	.st67{fill:#101C27;}
	.st68{fill:#838996;}
	.st69{fill:#1F6FD6;}
	.st70{fill:#21262B;}
	.st71{fill:#1B3865;}
	.st72{fill:#979EA5;}
	.st73{fill:#061F3C;}
	.st74{fill:#1B2A36;}
	.st75{fill:#1F2228;}
	.st76{fill:#0D1418;}
	.st77{fill:#111A23;}
	.st78{fill:#1B76ED;}
	.st79{fill:#1B4CC6;}
	.st80{fill:#0E1620;}
	.st81{fill:#101D2D;}
	.st82{fill:#0E1A25;}
	.st83{fill:#0A131B;}
	.st84{fill:#0D1A23;}
	.st85{fill:#AFB1B8;}
	.st86{fill:#22252E;}
	.st87{fill:#111A22;}
	.st88{fill:#0C1A28;}
	.st89{fill:#08141D;}
	.st90{fill:#1B242B;}
	.st91{fill:#0B1623;}
	.st92{fill:#3E464F;}
	.st93{fill:#758494;}
	.st94{fill:#0C161E;}
	.st95{fill:#0E1621;}
	.st96{fill:#0A1821;}
	.st97{fill:#131B24;}
	.st98{fill:#7B8088;}
	.st99{fill:#121A22;}
	.st100{fill:#777A81;}
	.st101{fill:#40474E;}
	.st102{fill:#051622;}
	.st103{fill:#071925;}
	.st104{fill:#0A1926;}
	.st105{fill:#0A1822;}
	.st106{fill:#05151F;}
	.st107{fill:#081421;}
	.st108{fill:#EFEFF0;}
	.st109{fill:#061723;}
	.st110{fill:#F4F4F5;}
	.st111{fill:#F8F9F9;}
	.st112{fill:#F2F2F3;}
	.st113{fill:#F7F7F8;}
	.st114{fill:#868A93;}
	.st115{fill:#1156E4;}
</style>
<g>
	<path class="st0" d="M105.774,87.989c0.039,2.278,0.077,4.556,0.116,6.834c0.646,0.846,0.849,1.757,0.407,2.761
		c-1.964,2.327-4.5,1.424-6.882,1.139c-1.909-0.229-4.142-1.291-4.799,1.604c-0.657,2.893,2.028,2.772,3.653,3.654
		c2.426,1.317,6.095,0.676,7.036,4.383c-0.829,7.24-0.458,14.51-0.503,21.754c-0.076,12.108,0.315,24.22,0.35,36.331
		c0.018,6.401,1.753,12.965-1.399,19.152c-0.3,0.589-0.447,1.253-0.71,1.865c-0.762,1.769-1.793,3.445-3.993,3.044
		c-2.511-0.458-3.019-2.675-2.619-4.671c1.167-5.819,0.413-11.576-0.049-17.361c-0.093-1.167-0.203-2.315-0.549-3.434
		c-0.41-1.941-0.344-3.912-0.376-5.876c1.336-5.734-0.326-11.651,1.035-17.388c1.41-1.119,2.729-2.203,2.89-4.279
		c0.498-6.422-0.59-12.731-1.183-19.075c-0.083-0.892-1.017-1.215-1.592-1.773c-2.158-1.8-0.453-4.665-1.849-6.677
		c-0.367-1.201-0.157-2.757-1.909-3.109c-1.331-1.431-3.046-0.888-4.65-0.897c-8.064-0.049-16.129,0.174-24.186-0.115
		c-1.509-0.373-1.615-1.38-1.164-2.626c0.584-1.613-0.02-2.678-1.669-2.706c-1.69-0.028-2.125-4.089-4.769-1.259
		c-0.806,0.863-1.948-0.59-2.442-1.676c-0.657-1.446-0.22-2.172,1.418-2.084c11.268,0.014,22.534-0.257,33.779,0.131
		c4.59,0.158,4.876-1.411,5.415-5.497c1.212-9.192,0.851-18.402,1.555-27.577c1.042-1.584,1.337-3.328,1.283-5.211
		c-0.075-2.656-0.132-5.322,0.032-7.974c0.161-2.606-0.024-6.394,3.137-6.436c3.59-0.047,4.128,3.777,4.179,6.806
		c0.14,8.307,0.749,16.699-0.22,24.895C103.983,79.418,105.82,83.523,105.774,87.989z"/>
	<path class="st1" d="M14.853,49.995c10.969-6.727,21.938-13.454,32.907-20.181c0.15,0.067,0.297,0.141,0.45,0.201
		c2.077,0.812,0.439,4.896,2.767,4.342c3.129-0.745,6.94-0.998,8.818-4.626c0.729-1.409,1.661-3.827,3.533-0.749
		c-0.052,1.497,0.174,3.011-0.353,4.465c0.574,1.333,0.696,2.729-0.77,3.427C50.64,42.378,40.652,50.587,29.1,56.104
		c-4.851,1.715-2.301,5.929-3.047,9.029c-1.599,0.875-2.755,0.059-3.111-1.326c-0.721-2.812-2.206-5.056-4.255-6.665
		c0.331,4.204,4.952,7.687,3.366,12.727c1.313,0.738,3.558-3.487,4.295,0.801c-0.02,3.672-0.185,7.342,0.046,10.984
		c0.201,3.17-1.09,3.881-4.051,3.897c-8.97,0.048-8.969,0.172-8.969-8.887c0-6.484,0.066-12.969-0.033-19.452
		C13.302,54.653,13.7,52.265,14.853,49.995z"/>
	<path class="st2" d="M26.034,144.596c11.664,6.926,23.263,13.966,35.039,20.694c2.705,1.545,2.456,3.58,2.421,5.843
		c-0.054,3.457-0.188,6.913-0.288,10.37c-3.696-0.124-6.157-2.843-9.058-4.513c-13.203-7.597-26.251-15.464-39.413-23.135
		c-1.552-0.905-1.916-1.925-1.906-3.573c0.062-10.486,0.08-20.972-0.015-31.458c-0.019-2.057,0.36-2.785,2.667-2.905
		c11.29-0.589,11.359-0.68,11.115,10.345c-0.136,6.133,0.477,12.292-0.534,18.4c-2.715,0.868-2.236-1.539-2.372-2.658
		c-0.75-6.158-3.911-12.119-1.497-18.571c0.478-1.277-0.093-2.926-1.606-3.2c-2.11-0.383-1.51,1.514-1.803,2.689
		c-1.187,4.753-0.833,9.486-0.214,14.279c0.401,3.104,0.508,6.268-0.698,9.334c-0.798,2.027-0.489,3.974,1.475,5.283
		c5.499,3.666,11.907,5.66,17.378,9.401c0.757,0.517,1.92,1.146,2.779,0.413c1.085-0.925,0.4-2.197-0.058-3.202
		c-1.144-2.506-3.006-4.335-5.584-5.411c-2.001-0.835-3.972-1.821-5.558-3.272C26.87,148.436,24.578,147.271,26.034,144.596z"/>
	<path class="st3" d="M105.774,87.989c-0.311-0.73-0.747-1.435-0.9-2.197c-0.16-0.798-0.088-1.651-0.05-2.477
		c0.138-2.982-6.018-0.586-4.036-4.25c0.988-1.827,3.271-2.692,3.137-5.617c-0.308-6.778-0.255-13.584-0.034-20.369
		c0.117-3.615-0.589-6.763-3.013-9.694c-2.211,1.404-2.046,3.575-2.047,5.68c-0.002,3.81-0.048,7.621,0.024,11.43
		c0.03,1.61-0.484,2.161-2.023,1.514c-2.963-0.107-0.404-3.181-2.126-3.955l0.028,0.088c-0.857-9.77-0.223-19.56-0.366-29.34
		c-0.107-7.307-0.029-14.618-0.016-21.926c0.003-1.797-0.364-3.716,1.411-5.024c4.008-4.181,6.864-0.191,10.056,1.417
		c0.852,7.418,0.643,14.841,0.091,22.265c0.732,17.185,0.339,34.374,0.162,51.561C106.034,80.725,105.876,84.357,105.774,87.989z"/>
	<path class="st4" d="M154.8,32.11c5.291,1.872,9.845,4.967,14.13,8.508c4.025,3.584,8.338,6.765,13.427,8.651
		c4.254,1.576,5.447,5.742,2.328,9.152c-1.203,1.315-2.981,2.134-3.255,4.165c-2.341,5.311-0.891,12.62,3.333,16.717
		c0.59,0.572,1.108,1.189,1.438,1.952c0.601,3.12-0.399,4.63-3.837,4.173c-1.158-0.154-2.228-0.655-3.367-0.683
		c-5.676-0.139-5.465-0.128-5.739-5.637c-0.259-5.197,0.959-10.137,1.917-15.13c0.42-2.191,0.517-4.245-0.453-6.276
		c-5.767-3.965-10.342-9.875-17.925-10.846c-0.645-0.083-1.402-0.419-1.7-0.978c-2.949-5.527-9.507-6.519-13.464-10.769
		c-0.558-0.6-1.326-1.001-1.957-1.546c-1.7-1.464-2.338-3.372-1.526-5.393c1.041-2.592,3.266-1.039,4.774-0.722
		c3.259,0.685,6.102,2.57,9.112,3.967C152.918,31.825,153.706,32.563,154.8,32.11z"/>
	<path class="st5" d="M147.812,265.035c-1.246,0.002-2.491,0.004-3.737,0.006c-2.487,0.186-2.973-3.138-5.391-3.072
		c-3.261-4.051-6.522-8.102-9.79-12.16c-3.281,2.884-3.245,6.378-2.964,9.827c0.323,3.964,0.013,6.143-5.291,6.061
		c-5.88-0.092-3.526-3.751-3.971-6.318c-0.136-0.786,0.127-1.641,0.207-2.465c1.409-2.623,0.483-5.437,0.599-8.153
		c0.227-5.294,2.611-7.255,7.482-5.721c1.795,0.566,3.014,0.361,4.252-1.275c3.462-4.573,7.352-8.823,10.301-13.78
		c1.191-0.836,2.614-0.748,2.654,0.709c0.085,3.082,2.041,6.565-1.366,9.149c-0.104,0.124-0.202,0.255-0.313,0.372
		c-4.105,4.346-3.869,8.578,0.332,12.708c0.891,1.409,2.063,2.608,2.981,3.997c0.334,0.367,0.667,0.733,1.001,1.1
		c0.779,1.516,2.172,2.54,3.13,3.912c0.295,0.303,0.59,0.607,0.885,0.91C149.983,262.599,149.084,263.862,147.812,265.035z"/>
	<path class="st6" d="M96.83,164.96c1.749,6.496,2.47,13.084,1.054,19.709c-0.453,2.119-0.856,4.406,1.368,4.941
		c2.496,0.6,2.234-2.125,2.794-3.783c1.253-3.709,2.647-7.11,2.279-11.408c-1.049-12.242-0.125-24.566-0.394-36.835
		c-0.18-8.221,1.399-16.657-1.314-24.69c-1.008-2.987,3.53-3.22,2.21-5.907c-0.27-0.483-0.195-0.884,0.279-1.193
		c0.786,0.22,1.37,0.554,0.845,1.509c0.075,1.379,0.771,2.767-0.056,4.134c0.644,3.035,0.65,6.07-0.006,9.105
		c0.582,10.625,0.592,21.25,0.006,31.876c0.932,13.389,0.184,26.796,0.397,40.193c0.031,1.968,0.332,3.98-0.407,5.906l0.105,0.005
		c0.578,1.956-1.154,2.483-2.145,3.468c-2.994,3.841-6.018,2.785-9.052,0.055c-0.886-14.261-0.364-28.538-0.396-42.806
		c-0.023-10.465-0.53-20.942,0.338-31.399l-0.043,0.035c1.492-0.4,2.315,0.424,2.95,1.603c0.78,4.231,1.629,8.47-0.81,12.495
		c0.263,2.641,0.094,5.13,1.343,7.877c1.139,2.504-2.266,5.774-1.346,9.117C96.013,160.965,96.014,162.963,96.83,164.96z"/>
	<path class="st7" d="M143.787,177.785c-2.397,1.056-3.774,3.828-6.705,3.986c-0.1-2.615,0.088-5.281-0.358-7.836
		c-0.967-5.544,1.334-8.753,6.197-11.296c7.454-3.898,14.577-8.429,21.841-12.692c3.173-0.666,5.912-3.007,9.409-2.438
		c2.099,1.426,1.055,2.969,0.175,4.511c-0.841,0.926-1.944,1.424-3.078,1.868c-1.865,0.929-4.61,1.053-3.889,4.316
		c-0.204,1.896-0.765,3.754-0.583,5.69c-5.983,2.767-10.681,7.679-16.866,10.108C147.974,175.411,144.859,174.94,143.787,177.785z"
		/>
	<path class="st8" d="M166.809,157.966c-1.692-4.083,1.692-4.11,3.996-4.999c1.303,0.575,2.271,0.149,2.999-1
		c-0.358-1.334,1.802-2.67-0.004-4.002c-0.871-0.464-1.645-0.978-1.139-2.166l-0.098,0.09c1.706-4.455,0.437-9.075,0.712-13.611
		c0.22-3.625,0.302-7.296-0.025-10.905c-0.354-3.909,0.96-5.541,4.91-4.894c0.963,0.158,1.989-0.103,2.909,0.409
		c0.489,0,0.977-0.001,1.466-0.001c1.659-0.483,3.679-1.031,3.665,1.554c-0.061,11.127,0.611,22.265-0.381,33.379
		c-0.048,0.537-0.615,0.742-1.015,1.028c-0.688,0.372-1.377,0.743-2.065,1.115c-2.39-0.116-3.86,1.163-4.835,3.191l0.068-0.054
		C174.277,157.731,170.684,159.674,166.809,157.966z"/>
	<path class="st9" d="M69.579,81.095c-0.982-0.443-0.911-1.249-0.72-2.095c1.398-1.105-0.047-2.876,0.954-4.074
		c-0.453-3.024,3.504-2.22,3.908-4.5c-0.506-10.399-0.397-20.806-0.347-31.211c0.038-7.948-0.298-15.9,0.19-23.836
		c3.87-0.739,3.435,2.287,3.206,4.241c-0.39,3.328-0.391,6.077,2.675,8.389c1.701,1.283,0.744,3.623,0.793,4.951
		c0.539-1.65-0.24-4.012,0.184-6.254c0.332-1.756-0.414-4.177,2.415-4.681c0.39,9.669,0.438,19.336-0.1,29.001
		c-0.093,7.001-2.458,13.904-0.908,20.977c0.33,0.372,0.66,0.743,0.991,1.115c0.32,1.262-0.429,1.786-1.415,2.122
		c-0.433-0.458,0.38-0.402-0.28-0.309c-0.191,0.027-0.27,0.159-0.238,0.397c0.03,0.22,0.143,0.331,0.342,0.353
		c0.438,2.754-1.495,3.771-3.481,4.562c-1.945,0.775-3.831,1.715-5.855,2.298C70.801,82.569,70.396,81.503,69.579,81.095z"/>
	<path class="st10" d="M176.801,226.949c6.661,0.02,13.321,0.041,19.982,0.061c-1.984,3.915-5.769,1.315-8.389,2.504
		c-0.064-0.059,0.071,0.008,0.115,0.113c1.188,2.838,6.953,0.209,6.281,5.258c-3.844-0.348-5.338,0.914-5.032,5.212
		c0.518,7.274-0.024,14.619,0.324,21.913c0.178,3.728-1.525,4.158-4.388,3.733c-2.345-0.347-5.904,1.719-5.578-3.508
		c0.423-6.787-0.075-13.635,0.436-20.41c0.372-4.936-0.817-7.522-6.177-6.821c-2.403,0.756-4.319,0.721-4.045-2.617
		c0.179-2.182-1.109-5.309,3.157-4.962C174.593,227.516,175.783,227.688,176.801,226.949z"/>
	<path class="st7" d="M49.774,235.736c-0.104-1.592,0.691-2.809,1.654-3.956c2.805-1.11,4.295-4.23,7.418-4.855
		c0.737-0.44,1.333-0.037,1.936,0.323c0.893,1.468-0.89,4.09,2.021,4.688c0.125,0.948,0.251,1.896,0.376,2.845
		c-0.473,1.538,1.002,1.536,1.7,2.149c0.184,2.455,3.242,4.136,1.889,7.005c-0.27,0.668-0.592,1.293-1.312,1.589
		c-0.452,0.134-0.916,0.169-1.385,0.128c-2.072-0.625-1.049-4.108-3.804-4.114c-0.356-0.569-0.543-1.207-0.784-1.826
		c-0.097-0.249,0.402-0.873-0.327-0.729c-0.163,0.032-0.28,0.563-0.514,0.836c-0.325,0.327-0.688,0.561-1.091,0.741
		c-1.633,0.29-2.009,1.385-1.82,2.843c0.106,2.465-2.939,5.724,1.796,6.998c1.745,1.451-2.579,3.266,0.287,4.656
		c0.22,0.388,0.338,0.802,0.353,1.246c-0.7,2.099-3.108,1.306-4.315,2.548c-2.96-0.063-5.494,0.272-6.237,3.985
		c-0.35,1.751-7.373,3.603-9.131,2.698c-1.608-0.828-0.647-2.09-0.271-2.965c3.108-7.246,5.382-14.853,9.331-21.737
		C49.055,239.47,48.978,237.412,49.774,235.736z"/>
	<path class="st11" d="M124.808,117.088c6.885,2.552,9.046,8.265,4.531,13.344c-1.752,1.971-1.775,3.716-1.768,5.807
		c0.057,15.989,0.171,31.977,0.155,47.965c-0.001,1.488,0.965,3.349-0.913,4.524c-1.258-1.405-2.184-2.963-2.28-4.909
		c2.034-4.485,0.757-9.198,0.719-13.776c-0.032-3.834,0.384-7.585,0.575-11.216c-0.594,0.676-1.318,2.404-2.185,2.034
		c-4.576-1.955-4.676,1.182-5.166,4.126c-0.111,0.668-0.723,1.067-1.498,0.96c-0.594-11.724,2.59-23.247,1.867-34.978
		c1.414-0.702,2.148,1.587,3.98,0.591c-0.244-2.46-2.055-5.437,1.049-7.684c0.979-0.709-0.06-1.796-0.407-2.667
		C122.771,119.459,122.906,117.989,124.808,117.088z"/>
	<path class="st12" d="M69.773,121.796c2.537-5.186,4.156-5.725,11.059-3.684c-0.091,2.105,1.073,2.891,3.01,2.865l-0.002-0.003
		c-0.77,2.095,1.058,4.116,0.177,6.214l-0.151-0.208l0.17,0.193c-2.826,1.024-2.649,3.517-2.69,5.78
		c-0.134,7.37,1.19,14.653,1.408,22.005c0.017,3.001,0.035,6.003,0.052,9.004c-2.539,1.053-3.483-0.503-3.435-2.53
		c0.099-4.217-3.446-7.311-2.242-12.584c-2.523,2.374-1.886,4.112-1.898,5.636c-0.071,9.469,0.002,18.939-0.063,28.407
		c-0.014,2.101,0.436,4.375-1.349,6.115c-1.954-1.137-0.913-2.997-0.921-4.474c-0.093-17.823-0.077-35.646-0.09-53.47
		c-0.573-1.432-1.942-2.097-2.973-3.088l-0.226-0.175l0.09-0.272C69.29,125.612,69.038,123.697,69.773,121.796z"/>
	<path class="st13" d="M73.819,189.007c0.007-12.478-0.034-24.956,0.075-37.432c0.015-1.721-1.118-4.771,1.752-4.741
		c2.248,0.024,3.023,2.864,2.974,5.055c-0.048,2.107-0.772,4.093,2.054,5.161c1.702,0.643,1.096,2.118,0.24,3.317
		c-1.738,2.435-0.295,3.215,1.891,3.595c0,10.121,0,20.242,0,30.672C79.826,192.769,76.823,190.888,73.819,189.007z"/>
	<path class="st14" d="M147.805,80.003c-5.853-1.899-7.823-9.318-6.738-12.821c1.614-5.209,6.21-8.644,11.491-8.099
		c4.538,0.469,7.445,3.048,8.353,7.646c0.277,1.545,1.403,3.609-0.709,4.273c-1.585,0.498-3.244-0.925-3.879-2.558
		c-1.15-2.96-2.812-4.467-6.052-3.006c-0.434,0.103-0.878,0.131-1.32,0.094c-0.588-0.019-1.313-0.635-1.725-0.067
		c-0.371,0.512,0.343,1.121,0.476,1.728c0.294,3.98,2.467,6.146,6.37,6.663c1.042,1.423,1,3.109,1.153,4.749
		c0.003,0.483-0.131,0.923-0.416,1.316c-0.016,3.931-0.044,7.861-0.041,11.792c0.001,1.541-0.517,3.434,2.063,3.45
		c1.264,0.736,3.79,0.266,2.917,3.048c-1.877-0.829-3.005,1.204-4.663,1.227c-1.435-0.782-2.432-2.235-4.104-2.666
		c-0.956-0.444-1.841-0.974-2.427-1.891C147.734,89.948,149.109,84.909,147.805,80.003z"/>
	<path class="st15" d="M40.88,127.986c0.765-1.743,2.362-2.384,3.975-3.005c1.465-6.237-0.133-12.577,0.623-18.836
		c3.43-0.973,6.077-5.291,10.41-2.446c0.747,1.479,0.498,2.559-1.313,2.714c-1.238,0.106-2.177,0.488-2.699,1.659
		c0.022,2.802,0.203,5.615,0.031,8.405c-0.275,4.453,0.053,7.983,4.194,11.394c5.658,4.66,3.898,11.342-3.18,16.135
		c-0.933,0.427-1.39-0.144-1.787-0.847c-0.372-0.956-0.397-1.935-0.187-2.925c0.971-2.056,3.143-3.959,0.823-6.435
		c-2.42-2.892-5.207-0.504-7.822-0.548C42.237,131.896,41.322,130.079,40.88,127.986z"/>
	<path class="st16" d="M45.736,86.532c-0.067-3.865-0.55-6.922-4.348-9.778c-5.505-4.141-3.96-12.397,2.065-15.892
		c1.393-0.387,2.678-1.023,4.191-1.165c1.937-0.181,3.276,0.165,3.554,2.256c0.256,1.925-0.685,2.697-2.6,2.399
		c-1-0.156-1.412,0.595-1.754,1.367c-0.41,1.232-1.384,2.251-1.439,3.593c-0.112,2.709,2.553,4.483,4.958,3.262
		c1.117-0.567,1.804-1.923,3.303-1.827c0.631,0.337,0.961,0.906,1.197,1.546c0.358,1.833,0.77,3.673-0.035,5.503
		c-2.952,2.146-2.786,5.328-2.827,8.453c-0.039,2.969-0.121,5.937-0.184,8.906c0.186,0.844-0.308,1.363-0.875,1.851
		c-1.905,1.231-3.896,2.934-5.006-0.81C45.058,92.993,45.159,89.767,45.736,86.532z"/>
	<path class="st17" d="M154.8,32.11c-1.622,1.795-3.067,0.308-4.454-0.339c-3.629-1.693-7.174-3.589-11.574-3.842
		c-0.171,6.205,5.518,7.316,8.906,9.978c2.518,1.979,6.031,2.642,7.245,6.224c0.401,1.183,1.43,1.785,2.713,1.858
		c8.01,0.452,12.184,7.228,18.168,11.021c-0.919,1.724-1.934,1.172-3.222,0.324c-1.911-1.258-3.661-2.884-6.074-3.214
		c-10.362-4.641-19.012-12.154-29.068-17.31c-0.918-0.471-0.771-1.38-0.775-2.17c-0.022-4.583-0.011-9.166-0.011-14.57
		C143.235,24.436,149.017,28.273,154.8,32.11z"/>
	<path class="st18" d="M22.856,250.761c-3.007,0.004-6.014,0.007-9.021,0.01c-3.226-0.483-6.426-0.65-9.281,1.32
		c-1.153,0.796-2.1,2.594-3.657,1.593c-1.11-0.714-0.417-2.423-0.485-3.69c-0.026-0.486,0.162-0.957,0.345-1.412
		c-0.025-1.195-0.049-2.39-0.074-3.585c3.79-1.851,5.163-5.175,5.55-9.1c0.095-0.964,0.396-2.152-0.891-2.439
		c-1.191-0.266-1.687,0.778-2.03,1.736c-0.436,1.218-0.286,2.729-1.467,3.57c-1.088,0.774-1.364-0.08-1.48-0.995
		c0.03-1.998,0.203-4.008-0.029-5.967c-0.418-3.529,1.009-4.403,4.44-4.487c3.819-0.093,4.717,1.139,4.659,4.799
		c-0.164,10.345,0.003,10.349,10.614,10.328c1.159-0.002,2.319,0.043,3.471-0.066c2.449,0.01,4.889,0.551,5.043,3.4
		C28.764,249.48,25.334,249.732,22.856,250.761z"/>
	<path class="st19" d="M120.636,85.069c-4.342-2.098-6.455-5.649-4.054-9.915c1.983-3.525,1.925-7.01,2.159-10.648
		c-1.065-3.092,0.291-6.395-0.831-9.482c-0.519-1.146-0.705-2.308-0.168-3.505c-0.853-3.46-0.198-6.979-0.403-10.463
		c0.001-8.327,0.045-16.656-0.024-24.983c-0.025-2.984,0.828-4.573,4.1-3.426c-2.21,8.683-0.77,17.522-1.078,26.289
		c-0.029,0.829-0.354,1.775-0.03,2.469c4.407,9.423,0.99,19.586,2.837,29.238c0.095,0.498,0.413,0.888,0.851,1.164
		c1.797,2.104,4.834,1.549,6.841,3.187l-0.004-0.007c0.013,1.931,1.919,4.945-2.504,4.327c-1.859-0.26-1.285,1.387-1.684,2.249
		C125.453,84.139,123.787,85.867,120.636,85.069z"/>
	<path class="st20" d="M22.856,250.761c0.313-0.54,0.491-1.317,0.96-1.584c5.108-2.918,5.12-2.896,1.037-6.242
		c-0.284-1.444-0.248-2.898-0.136-4.354c0.074-2.553,0.148-5.106,0.222-7.659c0.761-1.347,1.63-2.806,3.443-2.024
		c2.199,0.949,4.207,2.626,4.298,5.064c0.337,8.968,0.301,17.949,0.012,26.92c-0.054,1.681-0.957,3.18-2.961,3.455
		c1.279,0.109,2.746-0.741,3.862,0.582c-1.76,1.254-3.797,0.359-5.676,0.727c-2.363,0.463-3.259-0.589-3.178-2.95
		c0.095-2.792-0.065-5.591-0.089-8.388C24.638,252.817,24.812,251.258,22.856,250.761z"/>
	<path class="st21" d="M105.903,263.951c-12.099,6.928-27.888-1.462-28.944-15.024c1.461-1.682,2.474-1.1,4.085,0.178
		c1.594,1.265,4.151,1.101,5.698,2.82c3.538,4.694,7.984,7.173,14.029,5.741c-0.574,1.352-0.455,1.75,0.529,1.535
		C105.455,258.296,104.937,261.825,105.903,263.951z"/>
	<path class="st22" d="M92.834,226.929c5.434-2.826,10.021,0.529,14.648,2.367c1.267,0.503,4.8,1.748,2.935,4.494
		c-1.441,2.121-3.456,4.694-6.929,2.712c-3.313-1.891-6.89-2.016-10.545-1.24c-3.48-0.267-4.665,2.372-6.04,4.77l0.043-0.056
		c-2.295,1.324,0.838,4.607-2.063,5.718c-3.224-0.13-5.64-2.794-3.858-5.275c1.992-2.772,1.14-5.944,2.815-8.467
		c1.284-0.071,0.498-2.124,1.949-2.036C88.581,229.97,90.288,227.462,92.834,226.929z"/>
	<path class="st23" d="M139.82,228.07c-1.996,5.859-6.631,9.923-10.108,14.77c-1.332,1.856-3.612,1.251-5.463,1.197
		c-1.036-0.03-2.22-2.446-3.144-0.916c-1.034,1.714-2.839,2.895-3.075,5.391c-0.262,2.779,2.09,6.048-1.154,8.403
		c-0.063-8.988,0.018-17.979-0.25-26.961c-0.134-4.483,2.925-2.908,5.068-3.125c2.459-0.249,4.599-0.318,4.294,3.407
		c-0.335,4.088-0.076,8.225-0.076,13.713c4.92-6.015,9.005-11.01,13.09-16.005C139.345,227.528,139.617,227.57,139.82,228.07z"/>
	<path class="st24" d="M166.508,54.12c2-0.474,3.39,0.726,4.961,1.643c1.287,0.751,2.416,2.538,4.335,1.247
		c2.37,5.394,0.056,10.111-1.586,15.194c-1.116,3.456-0.274,7.547-0.272,11.354c0,0.287,0.292,0.829,0.436,0.825
		c3.733-0.107,7.467-0.241,11.186-0.549c0.129-0.011,0.106-1.848,0.155-2.835c-1.832-3.118-1.811-6.674-2.167-10.083
		c-0.334-3.204-1.112-6.161-2.753-8.909c-1.467-2.572,1.059-3.162,2.292-3.822c2.351-1.259,2.965-3.187,2.577-5.375
		c-0.429-2.423-2.452-2.322-4.581-2.595c-3.88-0.497-5.518-5.267-9.292-5.911c-2.598-0.444-2.499-2.018-2.867-3.686
		c5.336,2.986,10.647,6.02,16.027,8.925c1.376,0.743,1.785,1.653,1.777,3.143c-0.055,10.119-0.071,20.239-0.001,30.358
		c0.014,2.081-0.554,2.78-2.796,2.901c-11.137,0.603-11.135,0.689-11.094-10.539c0.01-2.82-0.316-5.7,0.139-8.449
		C173.976,60.964,172.639,56.4,166.508,54.12z"/>
	<path class="st10" d="M58.247,255.779c-1.595-0.869-2.787-1.882-4.195-3.078c1.586-0.685,2.69-1.162,3.794-1.639
		c1.643-2.161-0.144-4.414,0.163-6.607c0.53-1.526-0.867-2.991-0.164-4.525l-0.001,0.001c1.482-1.119,2.23-0.028,2.999,0.997
		c2.408,0.259,1.449,3.884,4,3.999c0.332,0.676,0.665,0.622,0.997,0c0.31-0.33,0.619-0.661,0.929-0.991
		c0.727,0.987,2.1,1.485,2.219,2.932c-1.862,3.779,1.364,6.391,2.211,9.506c-0.034,0.329-0.228,0.477-0.561,0.396
		c0.228,0.32,0.361,0.254,0.413-0.218c0.502-0.491,0.915-1.173,1.756-0.625c0.278,0.778-0.033,1.823,1.021,2.249
		c0.722,1.196,0.994,2.616,1.868,3.736c0.38,1.002,0.76,2.003,1.14,3.005c-3.474,0.974-6.837,0.799-10.047-0.966l0.008,0.018
		c-0.535-1.274,0.595-3.093-1.287-3.926c-3.705-2.172-7.838-0.147-11.658-1.189C54.411,256.825,56.853,257.361,58.247,255.779
		c0.407-0.15,0.401-0.156,0.386-0.163c-0.031-0.013-0.168,0.023-0.41,0.106c-0.269,0.093-0.395,0.159-0.379,0.2
		C58.104,255.802,58.373,255.707,58.247,255.779z"/>
	<path class="st25" d="M157.575,127.013c0.386,1.463,2.887,1.478,2.415,3.528c0.289,2.677-1.816,2.533-3.453,2.94
		c-3.055-1.351-6.13-2.602-9.538-1.186c-1.874-0.61-1.969-3.536-4.423-3.395c8.077-5.655,4.549-14.049,5.072-21.486
		c-0.339-0.499-0.377-1.019-0.117-1.565c2.45-2.313,4.938-2.364,7.463-0.123c0.293,0.532,0.27,1.052-0.067,1.559
		c-0.08,1.905-0.159,3.811-0.239,5.716c-0.834,3.217-0.187,6.517-0.54,9.755C153.859,125.419,156.092,125.874,157.575,127.013z"/>
	<path class="st26" d="M116.978,165.947c1.005-0.896,0.943-2.115,0.823-3.25c-0.392-3.706,0.504-5.181,4.446-3.259
		c3.19,1.555,2.375-2.852,4.569-3.417c0,8.232,0.001,16.404-0.001,24.575c0,1.511,0.144,3.114-1.994,3.358
		c-3.318,0.156-5.03-1.587-4.664-4.734c0.432-3.713,0.581-7.093-3.196-9.247C116.967,168.63,116.973,167.289,116.978,165.947z"/>
	<path class="st27" d="M0.757,248.583c0.09,1.46,0.18,2.92,0.38,6.152c3.347-7.819,8.118-5.334,12.698-3.963
		c-3.356-0.401-4.711,0.95-4.085,4.378c0.264,1.442,0.062,2.969,0.069,4.458c0.029,6.401,0.031,6.331-6.453,6.078
		c-1.756-0.068-2.735-0.275-2.818-2.358C0.35,258.403-0.508,253.483,0.757,248.583z"/>
	<path class="st28" d="M155.897,132.975c1.236-1.028,3.316-0.635,4.093-2.434c0.302,0.399,0.604,0.799,0.906,1.198
		c1.233,3.274-0.057,5.958-1.987,8.491c0.154,0.28,0.112,0.525-0.127,0.737c-0.95,0.312-1.71,0.829-1.992,1.858
		c-0.504,0.43-1.009,0.859-1.513,1.289c-2.625,0.089-5.251,0.707-7.875-0.01c-6.655-3.567-8.153-8.287-4.826-15.205
		c4.837-3.152,3.152,2.04,4.42,3.454c1.404,1.657,1.321,4.114,3.03,5.597c2.141,1.047,4.07,1.59,4.495-1.753
		C154.699,134.999,154.789,133.767,155.897,132.975z"/>
	<path class="st29" d="M116.962,169.972c4.416,1.591,6.008,4.511,4.337,9.045c-1.221,3.312,2.097,3.468,3.522,4.937
		c1.514,1.237,2.36,2.752,1.992,4.774c-3.111,2.112-6.223,4.224-9.851,6.687C116.962,186.445,116.962,178.209,116.962,169.972z"/>
	<path class="st30" d="M62.541,28.005c-1.865,4.54-5.928,6.183-10.12,7.612c-2.252,0.768-4.659,1.72-4.038-2.479
		c0.156-1.054-0.396-2.213-0.623-3.324c4.655-2.95,9.31-5.9,13.964-8.85C64.873,22.977,63.276,25.541,62.541,28.005z"/>
	<path class="st31" d="M50.853,95.997c0.321-0.281,0.642-0.562,0.963-0.842c13.239,0.032,26.48-0.03,39.717,0.166
		c3.174,0.047,2.412-1.889,2.45-3.535c0.262-11.244,0.486-22.489,0.722-33.734c1.793,0.735,0.499,3.131,2.126,3.955
		c0.378,5.778-0.629,11.58,0.744,17.38c0.438,1.849-0.365,4.439-1.485,6.09c-1.284,1.894-1.575,3.812-1.152,5.637
		c0.98,4.227-0.138,5.185-4.591,5.052c-12.131-0.362-24.283,0.004-36.427,0.082C52.786,97.53,51.68,98.462,50.853,95.997z"/>
	<path class="st32" d="M164.841,253.917c0.086,1.321,0.227,2.641,0.248,3.963c0.126,8.092,0.116,8.092-8.224,7.623
		c-1.003-7.787-0.651-15.586-0.199-23.382c2.758-0.699,2.143,1.668,2.706,2.962C158.56,249.652,160.857,252.305,164.841,253.917z"/>
	<path class="st33" d="M147.805,80.003c2.033,2.793,0.564,5.982,1.01,8.954c0.303,2.019-0.765,4.263,0.992,6.044
		c0.149,2.187-1.893,2.77-2.97,4.068c-6.458,1.211-12.734-0.966-19.122-1.005c-1.88-0.525-3.766-1.013-5.713-0.277
		c-0.698,0.186-1.408,0.299-2.126,0.361c-2.104,0.166-4.243-0.15-6.316,0.478c-0.463,0.148-0.933,0.252-1.409,0.341
		c-1.963,0.216-3.932,0.493-5.808-0.438c-0.173-0.178-0.344-0.358-0.515-0.539c0.021-1.056,0.041-2.112,0.062-3.167
		c13.122,0.055,26.245,0.059,39.366,0.209c2.462,0.028,2.583-1.181,2.543-3.064C147.714,87.982,147.793,83.992,147.805,80.003z"/>
	<path class="st34" d="M82.835,22.024c-1.753,3.776-1.207,8.001-2.507,12.463c-0.795-3.158-0.066-6.532-4.389-7.396
		c-1.978-0.395-1.337-3.558-0.776-5.366c0.732-2.361,0.939-4.506-0.321-6.683c-0.347-0.206-0.462-0.411-0.346-0.616
		c0.116-0.204,0.231-0.307,0.349-0.307c0.122-0.283,0.322-0.359,0.601-0.229c2.654-0.804,5.385-2.106,7.416,1.14
		C83.307,17.363,83.25,19.694,82.835,22.024z"/>
	<path class="st35" d="M227.776,117.898c-7.905,1.536-15.902,0.642-23.856,0.896c-1.242,0.04-2.924,0.491-3.087-1.501
		c-0.181-2.203,1.513-2.208,3.055-2.216c8.309-0.043,16.618-0.094,24.927-0.088c1.049,0.001,2.538-0.478,2.791,1.23
		c0.185,1.248-0.599,1.783-1.823,1.673c-1.539-1.898-3.77-1.219-5.659-1.515C225.159,117.19,227.465,115.142,227.776,117.898z"/>
	<path class="st36" d="M33.594,264.919c-2.145,0-4.291,0-6.436,0c4.197-0.888,4.812-3.767,4.739-7.403
		c-0.147-7.301,0.021-14.608-0.067-21.911c-0.056-4.673-3.112-6.673-6.891-4.683c0.017-0.996,0.034-1.993,0.05-2.989
		c1.819-1.169,3.999,0.134,5.845-0.851c1.825-0.505,3.263-0.606,3.197,2.049C33.733,241.057,34.55,252.999,33.594,264.919z"/>
	<path class="st37" d="M124.808,117.088c-2.578,2.915,1.966,4.879,1.171,6.798c-0.772,1.862-4.574,3.417-2.573,5.538
		c3.134,3.322-0.27,3.091-1.506,3.835c-2.584,1.554-0.984-2.887-3.055-2.289l-0.008-0.019c-2.009-2.771-3.048-5.763-2.102-9.209
		C117.893,117.531,120.849,116.438,124.808,117.088z"/>
	<path class="st38" d="M40.88,127.986c2.078,1.121,2.646,3.132,3.079,5.223c1.347,1.389,1.402,3.529,2.843,4.856
		c1.308,1.626,3.76,0.231,5.045,1.901c-0.001,1.003-0.001,2.006-0.002,3.008c-2.063,3.035-5.032,0.329-7.441,1.176
		C37.618,140.312,36.325,134.38,40.88,127.986z"/>
	<path class="st39" d="M147.808,105.987c-0.053,0.476-0.106,0.951-0.16,1.427c-13.899-0.037-27.799-0.074-41.698-0.111
		c-0.373-0.438-0.746-0.877-1.12-1.315c-0.05-2.472,1.941-2.486,3.453-2.512c7.181-0.124,14.421-2.161,21.531,0.852
		c2.161,0.916,4.57,0.208,6.8-0.494c2.541-0.8,5.091-1.444,7.772-0.703C145.861,103.682,147.27,104.315,147.808,105.987z"/>
	<path class="st40" d="M83.839,231.953c-0.237,2.789,3.306,6.371-1.93,8.217c-0.799,0.282,2.127,2.895-0.283,4.245
		c0.942,0.975,2.146,0.311,3.212,0.514c1.59,0.842,1.948,2.32,1.18,3.672c-0.752,1.323,0.213,1.652,0.74,2.325
		c-0.005,0.333-0.01,0.667-0.015,1c-3.658,0.296-6.289-2.757-9.783-2.998c-0.012-0.672-0.023-1.344-0.035-2.017
		c0.983-1.647-0.077-3.608,0.809-5.27C78.333,237.507,79.976,234.031,83.839,231.953z"/>
	<path class="st41" d="M45.848,105.986c0.128,4.637,0.346,9.274,0.339,13.911c-0.003,1.742,0.153,3.667-1.332,5.084
		c0.007-4.801-0.105-9.606,0.068-14.402c0.098-2.701-1.049-3.375-3.52-3.35c-8.117,0.082-16.239-0.145-24.352,0.049
		c-3.36,0.08-5.177-0.525-4.04-4.304c0.599-1.26,1.536-1.565,2.789-0.998c8.013,2.985,16.285,1.204,24.451,1.316
		C42.558,103.324,45.414,102.109,45.848,105.986z"/>
	<path class="st42" d="M25.662,64.981c0.185-3.331-2.633-7.825,3.438-8.877c-2.174,1.604-2.822,3.646-2.691,6.409
		c0.306,6.457,0.054,12.939,0.3,19.401c0.111,2.92-0.515,4.017-3.758,4.027c-10.113,0.031-10.101,0.191-10.058-9.918
		c0.031-7.465-0.014-14.93,0.071-22.394c0.016-1.415-0.954-3.589,1.89-3.634c-1.393,7.693-0.914,15.466-0.983,23.215
		c-0.018,1.986,0.23,4.007-0.051,5.953c-0.717,4.959,1.5,5.956,6.11,5.997c4.824,0.043,6.529-1.393,5.971-6.156
		c-0.383-3.27-0.163-6.61-0.213-9.919C24.571,67.723,24.76,66.354,25.662,64.981z"/>
	<path class="st43" d="M71.843,81.998c1.158-1.57,2.885-1.943,4.653-2.414c2.299-0.613,4.151-1.867,4.34-4.582l0.001-0.001
		c0.66-0.628,1.321-1.256,1.981-1.884c3.683,2.926,2.35,6.231,0.156,8.998c-2.218,2.797-4.944,5.612-9.142,2.901
		C74.031,83.442,71.224,83.848,71.843,81.998z"/>
	<path class="st44" d="M51.877,108.071c-0.325-2.962,4.195-1.215,3.968-4.082c2.5-0.841,4.854-0.656,6.998,0.998
		c9.029-0.275,18.069,0.495,27.103-0.333c0.924-0.085,3.825-0.937,2.903,2.211c-11.896,0.886-23.811,0.228-35.714,0.455
		C55.366,107.354,53.472,106.741,51.877,108.071z"/>
	<path class="st45" d="M53.858,73.009c-0.053-0.773-0.106-1.546-0.159-2.319c-2.075-2.464-4.343-4.646-7.671-5.294
		c-0.759-2.021,1.367-1.728,2.089-2.552c0.53-0.605,2.232,2.661,2.202-0.648c-0.018-2.02-1.022-2.027-2.537-1.763
		c-1.425,0.249-2.885,0.294-4.329,0.429c2.886-2.909,6.408-2.479,9.487-0.994c4.004,1.931,5.886,5.617,5.9,10.136
		C56.869,70.491,56.413,73.489,53.858,73.009z"/>
	<path class="st46" d="M94.735,127.841c0.036,16.55,0.084,33.1,0.105,49.65c0.01,8.185-0.03,16.37-0.047,24.555
		c-1.451-0.651-0.963-1.98-0.957-3.04c0.127-22.92,0.288-45.839,0.468-68.758C94.31,129.444,94.585,128.643,94.735,127.841z"/>
	<path class="st47" d="M154.928,107.285c-0.039-0.433-0.079-0.866-0.118-1.298c-1.152-2.41,0.754-2.617,2.146-2.549
		c9.667,0.472,19.362-1.061,29.012,0.412c0.397,1.026,0.539,2.038-0.171,3C175.507,106.996,165.217,107.14,154.928,107.285z"/>
	<path class="st27" d="M1.103,238.893c1.04-1.089,0.873-2.483,0.729-3.743c-0.42-3.663,2.666-3.767,4.519-3.635
		c2.613,0.185,1.326,2.766,1.305,4.348c-0.014,1.11-0.7,2.2-0.787,3.323c-0.3,3.87-1.969,6.165-6.185,5.812
		c-0.812-0.616-0.248-1.173,0.074-1.741C0.239,241.752,0.428,240.303,1.103,238.893z"/>
	<path class="st48" d="M105.903,263.951c-1.772-3.076-4.188-4.902-8.617-3.527c0.952-2.143,3.343-0.995,3.485-2.758
		c4.858-4.987,8.555-2.269,12.11,1.893C110.809,261.429,108.682,263.194,105.903,263.951z"/>
	<path class="st49" d="M185.796,106.851c-0.042-0.949-0.085-1.898-0.127-2.847c-1.139-3.604-3.249-5.376-7.301-4.458
		c-2.706,0.613-4.448-2.386-7.331-2.308c-3.763,0.101-7.488,0.443-11.225,0.753c-0.427-1.54-2.113-1.752-2.981-2.827
		c9.065,0.019,18.13,0.033,27.195,0.062c1.076,0.004,2.733-0.434,2.601,1.289C186.362,99.959,187.727,103.548,185.796,106.851z"/>
	<path class="st50" d="M1.103,238.893c0.575,1.509-0.201,2.911-0.345,4.364c-1.317-4.727-0.34-9.574-0.738-14.351
		c-0.067-0.808-0.012-1.541,0.956-2.011c4.22-2.05,8.906,0.686,8.835,5.218c-0.153,9.71-0.15,9.635,9.982,10.015
		c2.786,0.104,4.965-0.014,4.924-3.546c0.841,1.426,1.204,2.867,0.136,4.354c-4.287-0.001-8.574-0.012-12.861-0.001
		c-3.013,0.007-4.123-1.354-3.544-4.38c0.367-1.918,0.23-3.927,0.415-5.886c0.29-3.081-0.316-4.882-4.15-4.845
		c-3.675,0.035-4.031,1.851-3.839,4.655C1.02,234.611,1.031,236.754,1.103,238.893z"/>
	<path class="st51" d="M194.791,234.886c-2.358-2.531-5.36-3.992-8.552-5.132c2.947-3.097,7.354-0.581,10.544-2.744
		c4.773,0.755,1.823,4.33,1.984,6.402C198.994,236.334,196.343,234.851,194.791,234.886z"/>
	<path class="st52" d="M74.845,14.119c0.009,0.308,0.008,0.615-0.003,0.923c-1.101,0.822-1.011,2.023-0.972,3.181
		c0.466,13.941-0.83,27.902,0.665,41.845c0.363,3.384-0.51,6.9-0.815,10.356c-1.373-4.041-0.636-8.216-0.677-12.324
		c-0.132-13.43-0.1-26.861-0.124-40.292C72.916,16.253,72.164,14.283,74.845,14.119z"/>
	<path class="st53" d="M139.82,228.07c-0.271-0.052-0.544-0.094-0.818-0.126c3.625-2.065,7.44-0.43,12.331-1.136
		c-4.291,4.052-6.504,8.357-10.536,11.035c0.134-3.139,0.282-6.277,0.343-9.417C141.142,228.316,140.279,228.189,139.82,228.07z"/>
	<path class="st54" d="M95.762,1.849c-0.97,2.023-0.911,4.183-0.914,6.353c-0.024,16.646-0.073,33.291-0.115,49.937
		c-1.174-18.084-0.74-36.19-0.749-54.29C93.984,2.591,94.731,2.125,95.762,1.849z"/>
	<path class="st55" d="M154.787,79.014c-1.644-1.482-0.703-3.483-1.048-5.226c1.203-4.073-0.234-6.978-3.931-8.884
		c4.058-2.437,5.778-1.987,7.257,2.501c0.572,1.734,1.82,2.025,3.051,2.934c1.135-1.072,0.448-2.474,0.795-3.61
		c1.383,2.653,1.126,5.119-0.841,7.391C157.127,74.476,157.098,77.977,154.787,79.014z"/>
	<path class="st56" d="M14.858,101.99c-0.616,0.328-1.231,0.657-1.847,0.985c-0.061-0.826-0.04-1.667-0.196-2.474
		c-0.809-4.204,0.921-5.12,5.015-4.969c7.456,0.276,14.944-0.415,22.413-0.315c3.658,0.049,5.477-0.765,4.854-4.796
		c-0.19-1.232,0.403-2.585,0.637-3.885c0.452,3.141-0.402,6.439,1.113,9.458c-1.301,2.223-3.454,1.462-5.327,1.431
		c-8.042-0.132-16.083-0.348-23.942,1.773c-0.876,0.403-2.599-0.338-2.278,1.708C15.277,101.322,15.132,101.683,14.858,101.99z"/>
	<path class="st57" d="M218.777,128.911c-5.139,0.063-10.278,0.148-15.417,0.169c-1.095,0.004-2.585,0.204-2.565-1.512
		c0.02-1.665,1.438-1.52,2.583-1.521c7.129,0,14.258,0.018,21.387,0.03c-0.299,2.517-2.296,1.732-3.741,1.841
		c-1.762,0.134-3.471-0.777-5.184-0.4c-0.753-0.048-0.339,0.759-0.375,0.093c-0.005-0.092,0.162-0.156,0.475-0.083
		C216.988,127.775,218.682,126.715,218.777,128.911z"/>
	<path class="st58" d="M166.809,157.966c2.293-1.208,5.443,0.879,7.437-2.348c0.758-1.226,2.112,1.735,3.725,1.483
		c-3.561,2.535-6.998,5.272-11.175,6.793C163.275,161.911,166.249,159.941,166.809,157.966z"/>
	<path class="st59" d="M229.739,137.112c2.345,0.25,2.602,1.22,0.977,2.837c-7.44,1.127-14.918,0.272-22.377,0.437
		c-1.466-1.303-0.359-2.022,0.627-2.766C215.88,137.084,222.833,138.058,229.739,137.112z"/>
	<path class="st60" d="M130.835,74.992c-0.638-0.147-1.275-0.416-1.913-0.419c-1.598-0.007-4.374-0.805-5.092-1.576
		c2.276-6.751,1.214-13.755,1.576-20.652c0.173-3.293-0.558-6.664,0.81-9.862c0.343-0.565,0.821-0.72,1.432-0.469
		c0.01,7.579,0.171,15.161-0.031,22.734C127.512,68.638,127.876,72.166,130.835,74.992z"/>
	<path class="st61" d="M121.823,14.026c-3.307-2.212-3.999-0.376-4,2.571c-0.001,8.14-0.011,16.28-0.017,24.42
		c-0.253,0.435-0.506,0.457-0.759,0c0-10.689,0-21.379,0-32.361c2.588,0.935,4.751,2.525,6.794,4.319
		c0.327,0.425,0.345,0.852,0.006,1.281C123.123,14.617,122.444,14.579,121.823,14.026z"/>
	<path class="st60" d="M120.636,85.069c2.785-0.645,5.09-1.901,5.144-5.133c0.028-1.654,1.957-0.764,2.117-1.975
		c3.609,1.602,2.05-1.891,2.934-2.975c2.379,3.396,0.725,6.352-1.511,8.717C126.996,86.16,123.95,87.304,120.636,85.069z"/>
	<path class="st0" d="M105.885,198.517c0.004-15.365,0.008-30.73,0.011-46.097c1.132,11.235,0.255,22.5,0.422,33.75
		C106.379,190.277,106.969,194.437,105.885,198.517z"/>
	<path class="st62" d="M21.143,182.965c2.162,0.412,3.784,1.273,3.696,3.826c-0.081,2.35-1.392,3.947-3.582,3.947
		c-2.108,0-3.679-1.404-3.698-3.818C17.539,184.528,18.942,183.37,21.143,182.965z"/>
	<path class="st63" d="M184.804,152.849c2.021-11.02,0.469-22.143,0.971-33.206c0.109-2.397-1.496-2.619-3.24-2.755
		c2.489-0.994,4.331-1.428,4.263,2.503c-0.175,10.122-0.03,20.249-0.064,30.374C186.73,151.102,187.352,153.023,184.804,152.849z"/>
	<path class="st64" d="M21.118,15.612c2.526,0.254,3.338,2.308,3.234,4.047c-0.112,1.868-1.453,4.257-3.502,4.141
		c-2.369-0.134-3.247-2.407-3.163-4.814C17.767,16.696,19.076,15.781,21.118,15.612z"/>
	<path class="st65" d="M158.799,245.928c-0.665-1.239-1.143-2.526-1.014-3.967c-0.306-0.387-0.311-0.787-0.055-1.2
		c2.747,1.332,6.629,1.142,7.219,5.373c-0.029,0.927-0.058,1.854-0.087,2.781c-1.055,1.331-1.881,3.431-4.09,2.173
		C158.879,250.011,157.55,248.373,158.799,245.928z"/>
	<path class="st66" d="M123.821,14.028c0.007-0.351,0.013-0.702,0.02-1.053c3.052,0.654,4.166,2.372,4.041,5.625
		c-0.301,7.796-0.183,15.609-0.234,23.415c-0.276,0-0.552,0.001-0.828,0.001c-1.611-1.043-1.876-2.638-1.726-4.359
		C125.789,29.719,125.599,21.831,123.821,14.028z"/>
	<path class="st67" d="M82.753,154.958c-1.714-8.754-1.978-17.631-2.082-26.504c-0.031-2.614,1.646-2.399,3.364-1.281
		c-3.066,4.325-2.389,9.064-1.65,13.867C83.094,145.651,83.106,150.306,82.753,154.958z"/>
	<path class="st63" d="M181.068,116.89c-7.263,0.34-7.262,0.34-7.247,7.699c0.011,5.621,0.061,11.242,0.002,16.862
		c-0.016,1.55,0.659,3.391-1.26,4.44c1.261-7.527,0.17-15.086,0.265-22.629C172.928,115.41,172.78,115.408,181.068,116.89z"/>
	<path class="st68" d="M218.777,128.911c-0.876-1.544-2.84-0.316-4-1.558c3.322-1.177,6.928,0.799,9.988-1.276
		c2.12,0.445,5.986-1.789,6.038,1.262c0.054,3.188-3.959,1.336-6.15,1.658C222.74,129.278,220.739,128.963,218.777,128.911z"/>
	<path class="st69" d="M157.681,224.018c-1.36-1.646-0.849-3.104,0.61-4.272c1.233-0.986,2.812-1.305,4.188-0.497
		c1.527,0.896,2.4,2.489,1.604,4.212c-0.899,1.943,0.022,3.42,0.468,5.167c0.481,1.887,1.502,4.326-1.464,5.459
		c-0.196-0.11-0.392-0.219-0.589-0.328c-0.674-2.575-0.464-5.301-1.346-7.845C161.772,222.028,159.667,223.131,157.681,224.018z"/>
	<path class="st40" d="M70.839,256.922c-1.633-2.461-4.564-4.284-3.563-8.013c0.296-1.103,0.814-1.633,1.712-2.04
		c1.683,2.847,3.215,5.757,3.82,9.058c-0.656,0.332-1.312,0.663-1.968,0.995H70.839z"/>
	<path class="st46" d="M96.829,128.978c-0.712-0.368-1.425-0.735-2.138-1.103c0.022-5.967,0.044-11.934,0.066-17.901
		c1.926,1.577,0.507,4.309,2.074,6.01C99.055,120.316,99.122,124.647,96.829,128.978z"/>
	<path class="st70" d="M182.681,186.951c-0.624,1.614-1.452,3.244-3.475,2.797c-1.852-0.409-2.498-2.023-2.354-3.872
		c0.132-1.707,0.999-2.982,2.77-2.814C181.775,183.265,182.596,184.888,182.681,186.951z"/>
	<path class="st71" d="M164.949,246.134c-1.585-2.805-5.45-2.455-7.12-5.143c-0.914,0.257-1.284-0.025-0.974-0.982
		c0.961-0.069,1.92-0.183,2.882-0.199C165.83,239.704,165.83,239.711,164.949,246.134z"/>
	<path class="st72" d="M207.716,139.858c7.667,0.03,15.334,0.061,23.001,0.091c-4.236,1.885-8.705,0.831-13.041,0.825
		c-5.363-0.007-10.793,0.795-16.108-0.641c0.491-0.799,1.275-1.104,2.14-1.279C205.164,138.699,206.583,138.714,207.716,139.858z"/>
	<path class="st72" d="M229.739,137.112c-6.945,1.97-14.055,0.261-21.058,0.946c-1.48,0.986-3.156,0.915-4.824,0.895
		c-1.128-0.013-2.235-0.087-3.078-0.987c3.403-1.913,7.086-0.686,10.621-0.828C217.505,136.894,223.626,137.097,229.739,137.112z"/>
	<path class="st73" d="M158.799,245.928c1.055,5.112,1.866,5.511,6.063,2.987c0.446,1.669,0.428,3.336-0.021,5.002
		c-1.346,1.34-2.227,2.516-3.516-0.434C160.239,250.999,156.088,249.709,158.799,245.928z"/>
	<path class="st74" d="M156.855,240.01c0.325,0.327,0.649,0.654,0.974,0.981c-0.018,0.323-0.033,0.646-0.045,0.969
		c-2.066,4.586-0.562,9.406-0.886,14.106c-0.216,3.131-0.037,6.29-0.035,9.436C155.641,257.006,154.934,248.508,156.855,240.01z"/>
	<path class="st75" d="M180.071,22.901c-2.058-0.163-2.362-1.503-2.28-3.161c0.087-1.769,0.917-2.865,2.742-2.815
		c1.979,0.054,2.386,1.422,2.289,3.113C182.718,21.82,181.772,22.735,180.071,22.901z"/>
	<path class="st52" d="M81.827,72.002c-3.122-2.167-0.656-5.1-0.852-7.608c-0.35-4.488,0.469-9.002,1.76-13.369
		C83.826,58.078,81.144,64.967,81.827,72.002z"/>
	<path class="st76" d="M82.862,15.03c-2.306-1.458-4.935-0.823-7.416-1.14c2.043-2.277,4.697-3.659,7.852-5.736
		C83.122,10.928,82.992,12.979,82.862,15.03z"/>
	<path class="st77" d="M105.91,25.532c-0.03-7.422-0.061-14.843-0.091-22.265C106.911,10.684,106.553,18.107,105.91,25.532z"/>
	<path class="st78" d="M157.681,224.018c1.113-1.198,0.612-4.453,3.619-3.208c2.966,1.228,0.319,3.373,0.506,5.081
		c-0.704,1.023-1.792,1.281-2.917,1.47c-0.467-0.014-0.856-0.198-1.167-0.549C157.709,225.881,157.695,224.95,157.681,224.018z"/>
	<path class="st79" d="M157.723,226.813c0.357,0.035,0.714,0.07,1.07,0.105c1.109,2.413-0.203,6.149,3.814,6.972
		c0.14,0.114,0.3,0.18,0.48,0.198c-2.533,1.708-5.315,1.536-6.85-0.816C154.921,231.256,155.166,228.496,157.723,226.813z"/>
	<path class="st80" d="M58.847,226.926c-0.6,1.992-3.71,1.631-3.759,4.643c-0.031,1.865-2.378-0.059-3.659,0.212
		C51.825,226.991,54.798,226.137,58.847,226.926z"/>
	<path class="st81" d="M53.858,73.009c2.269,0.007,1.238-5.455,4.981-3.005c-0.408,3.076-1.877,5.605-4.012,7.792
		C54.504,76.2,54.181,74.604,53.858,73.009z"/>
	<path class="st82" d="M157.575,127.013c-2.88,0.558-4.142-1.77-4.057-3.553c0.166-3.474-0.743-7.163,1.171-10.458
		c0.056,2.138,0.363,4.305,0.109,6.405C154.423,122.508,154.994,125.079,157.575,127.013z"/>
	<path class="st58" d="M172.661,145.8c0.38,0.722,0.76,1.444,1.14,2.166c-3.023,0.613-5.69,2.853-9.039,1.982
		C167.075,147.957,169.736,146.626,172.661,145.8z"/>
	<path class="st83" d="M176.801,226.949c-1.446,2.202-6.437-0.822-6.078,4.331c0.185,2.658,0.934,3.94,3.651,3.726
		c-1.479,0.635-3.668,1.524-4.229-0.138c-0.741-2.195-0.556-4.867-0.15-7.227c0.279-1.624,2.213-0.785,3.41-0.882
		C174.525,226.668,175.669,226.873,176.801,226.949z"/>
	<path class="st84" d="M86.757,250.925c-1.105-0.606-4.989,0.194-1.313-2.824c0.979-0.804-0.227-2.125-0.607-3.172
		c1.718-1.219-1.189-4.405,2.107-4.953C86.882,243.626,86.82,247.275,86.757,250.925z"/>
	<path class="st40" d="M86.902,240.032c-0.586-3.545,2.535-4.74,4.455-6.485c0.977-0.888,1.356,0.802,1.585,1.715
		C90.451,236.246,88.767,238.254,86.902,240.032z"/>
	<path class="st85" d="M207.712,224.019c-0.422-0.444-0.889-0.854-1.257-1.339c-0.883-1.162-4.685,0.834-3.161-2.389
		c0.675-1.428,3.518-2.173,5.503-0.345C209.15,221.495,208.572,222.794,207.712,224.019z"/>
	<path class="st86" d="M170.966,20.186c0.061,1.281-0.727,2.146-2.314,2.139c-1.521-0.007-1.768-1.055-1.778-2.328
		c-0.011-1.364,0.45-2.151,1.935-2.149C170.192,17.849,170.942,18.445,170.966,20.186z"/>
	<path class="st87" d="M143.787,177.785c-0.408-0.724-2.203-1.098-0.222-2.32c2.035-1.255,4.178-1.28,6.366-1.463
		C148.3,175.942,146.305,177.289,143.787,177.785z"/>
	<path class="st88" d="M154.787,79.014c1.613-1.791,0.47-6.555,5.282-4.894c-1.317,2.329-2.987,4.339-5.261,5.801
		C154.8,79.619,154.793,79.316,154.787,79.014z"/>
	<path class="st89" d="M147.812,265.035c0.334-1.398,0.667-2.795,1.001-4.193c1.925,0.824,2.752,2.561,3.81,4.331
		C150.849,265.788,149.324,265.688,147.812,265.035z"/>
	<path class="st67" d="M83.842,120.976c-1.778,0.836-3.556,1.675-5.529,0.322c0.09-1.716,2.835-1.265,2.518-3.187
		C82.839,118.012,83.242,119.597,83.842,120.976z"/>
	<path class="st58" d="M177.903,157.155c0.565-4.501,1.819-5.329,4.835-3.191C181.765,155.995,179.617,156.246,177.903,157.155z"/>
	<path class="st90" d="M62.541,28.005c-0.041-2.374,1.098-4.885-0.817-7.041c1.743-1.411,1.873-0.071,1.791,1.149
		c-0.255,3.774,0.452,7.594-0.54,11.332C62.83,31.633,62.685,29.819,62.541,28.005z"/>
	<path class="st91" d="M62.804,231.937c-0.937,0.597-1.874,1.195-3.441,2.194c0.556-2.694,0.988-4.788,1.42-6.882
		C62.02,228.569,62.49,230.219,62.804,231.937z"/>
	<path class="st89" d="M138.684,261.969c3.478-1.925,3.88,1.547,5.391,3.072C140.659,266.857,139.963,263.901,138.684,261.969z"/>
	<path class="st40" d="M66.789,263.95c3.338,0.44,6.634,1.31,10.047,0.966C73.385,265.661,69.857,267.198,66.789,263.95z"/>
	<path class="st11" d="M116.735,121.741c0.075,3.212,1.126,6.202,2.102,9.209C116.045,128.357,114.746,125.424,116.735,121.741z"/>
	<path class="st92" d="M167.837,187.315c-1.05-0.014-1.984-0.183-2.053-1.521c-0.058-1.121,0.301-1.934,1.572-1.978
		c1.207-0.042,2.39,0.058,2.376,1.691C169.722,186.7,168.948,187.21,167.837,187.315z"/>
	<path class="st93" d="M227.776,117.898c-1.27-1.692-3.421-0.28-5.771-1.961c3.235,0.867,6.2-2.053,7.779,1.954
		C229.115,117.894,228.445,117.896,227.776,117.898z"/>
	<path class="st94" d="M44.405,144.15c2.228-1.991,5.225,0.893,7.441-1.176c0.359,0.344,0.718,0.687,1.077,1.031
		C50.109,145.59,47.266,145.44,44.405,144.15z"/>
	<path class="st95" d="M158.91,140.23c0.549-2.857,2.616-5.359,1.987-8.491C162.085,135.002,162.769,138.148,158.91,140.23z"/>
	<path class="st96" d="M117.047,41.016c0.253,0,0.507,0,0.76,0c-0.022,3.499-0.044,6.998-0.065,10.499
		C116.764,48.067,116.817,44.548,117.047,41.016z"/>
	<path class="st40" d="M92.834,226.929c-2.163,1.433-3.858,3.97-7.046,2.988C87.981,228.555,89.927,226.61,92.834,226.929z"/>
	<path class="st96" d="M117.91,55.024c1.81,3.024,0.557,6.317,0.83,9.479C117.705,61.412,117.84,58.215,117.91,55.024z"/>
	<path class="st97" d="M71.843,81.998c0.303,1.243,3.476,0.595,1.988,3.018c-1.952-0.727-3.465-1.931-4.252-3.921
		C70.334,81.396,71.088,81.697,71.843,81.998z"/>
	<path class="st95" d="M147.402,144.105c2.625-0.071,5.251-0.959,7.875,0.01C152.651,145.443,150.026,145.428,147.402,144.105z"/>
	<path class="st0" d="M105.888,120.542c0.003-3.033,0.005-6.067,0.007-9.103C106.627,114.472,106.606,117.507,105.888,120.542z"/>
	<path class="st67" d="M84.017,127.188c-0.243-2.066-1.62-4.1-0.177-6.214C85.471,123,85.382,125.076,84.017,127.188z"/>
	<path class="st89" d="M147.927,259.932c-1.016-1.326-4.147-0.96-3.13-3.912C146.482,256.811,147.698,257.977,147.927,259.932z"/>
	<path class="st98" d="M200.78,137.966c0.987,0.04,1.974,0.08,2.961,0.12c0.637,0.58,0.64,1.154-0.016,1.722
		c-0.719,0.108-1.437,0.216-2.157,0.324C200.532,139.691,199.759,139.154,200.78,137.966z"/>
	<path class="st40" d="M64.88,236.931c-0.934-0.35-2.186,1.242-2.843-0.343c-0.347-0.839,0.398-1.426,1.143-1.806
		C64.166,235.167,64.977,235.689,64.88,236.931z"/>
	<path class="st80" d="M49.774,235.736c0.096,2.066-0.103,4.003-2.23,5.097C48.173,239.084,48.368,237.145,49.774,235.736z"/>
	<path class="st20" d="M30.834,227.081c-1.763,1.556-3.896,0.573-5.845,0.851C26.664,225.772,28.884,227.352,30.834,227.081z"/>
	<path class="st89" d="M143.796,254.921c-1.589-0.889-2.912-1.976-2.981-3.997C142.019,252.099,143.659,252.95,143.796,254.921z"/>
	<path class="st99" d="M69.836,127.975c1.946,0.11,2.955,1.123,2.973,3.088C71.396,130.439,69.952,129.846,69.836,127.975z"/>
	<path class="st100" d="M207.712,224.019c-0.043-1.465,0.114-2.877,1.085-4.073C210.916,221.965,209.185,222.958,207.712,224.019z"
		/>
	<path class="st40" d="M65.511,260.042c2.613,0.593,2.3,2.145,1.287,3.926C65.414,262.972,66.043,261.316,65.511,260.042z"/>
	<path class="st101" d="M33.923,184.024c1.035,0.345,1.082,1.156,0.931,1.995c-0.142,0.791-0.862,1.171-1.425,0.827
		c-0.428-0.261-0.645-1.088-0.7-1.686C32.663,184.432,33.113,183.953,33.923,184.024z"/>
	<path class="st99" d="M69.773,121.796c-0.024,1.91-0.049,3.821-0.073,5.732C68.314,125.599,68.352,123.689,69.773,121.796z"/>
	<path class="st95" d="M156.791,142.825c-0.256-0.678-0.898-1.36-0.116-2.066c0.748-0.675,1.416,0.006,2.107,0.208
		C158.752,142.266,158.062,142.857,156.791,142.825z"/>
	<path class="st97" d="M69.813,74.926c0.022,1.438,1.458,3.206-0.954,4.074C68.446,77.471,68.626,76.081,69.813,74.926z"/>
	<path class="st40" d="M75.697,261.911c-1.586-0.764-1.97-2.128-1.868-3.736C75.355,258.969,75.639,260.383,75.697,261.911z"/>
	<path class="st84" d="M77.733,241.641c-0.074,1.787,0.738,3.709-0.809,5.27C76.779,245.091,76.498,243.249,77.733,241.641z"/>
	<path class="st0" d="M103.844,201.99c0.715-1.155,1.43-2.311,2.145-3.467C106.983,200.735,105.989,201.718,103.844,201.99z"/>
	<path class="st102" d="M15.862,98.983c3.807-3.535,8.764-2.284,13.161-2.79c5.872-0.675,11.877-0.188,17.825-0.2
		c1.331,4.103,2.671-1.262,4.005,0.004c0.899,1.59,2.043,0.179,3.067,0.252c1.311,0.651,1.77,4.13,4.174,1.233
		c0.297-0.358,0.435-0.193,1.532,1.379c0.22,0.315,0.778,0.473,1.207,0.549c5.49,0.962,5.491,0.955,2.009,5.578
		c-2.37-0.068-4.815,0.387-6.998-0.998c-3.742-1.385-6.438,2.467-9.997,1.997c-0.655-1.304-1.594-2.149-3.165-1.788
		c-7.388,1.699-14.878,0.425-22.314,0.753c-2.3,0.102-4.802,0.113-5.511-2.961c0.001-0.336,0.002-0.672,0.002-1.008
		C14.286,99.86,14.981,99.375,15.862,98.983z"/>
	<path class="st103" d="M144.813,103.987c-2.861-0.225-5.602,0.258-8.314,1.197c-3.211,1.113-6.415,1.51-9.561-0.424
		c-2.439-1.499-5.302-1.062-7.801-0.652c-4.756,0.78-9.875-1.151-14.307,1.879c-0.001,0.333-0.003,0.667-0.004,1
		c-3.79,0.078-7.005-1.929-10.369-3.185c-1.028-0.384-2.079-3.217-1.632-4.337c0.458-1.149,2.306-2.472,4.211-2.312
		c2.933,0.246,5.861,0.555,8.791,0.837c0,0,0.001,0.002,0.001,0.002c2.332,0.824,4.664,0.818,6.996,0l0.001-0.001
		c2.195-1.296,4.81,0.349,6.997-1c0.666,0,1.333,0,1.999-0.001c1.666-0.75,3.331-0.749,4.997-0.001
		c6.716-0.689,13.277,1.734,19.995,1.001C149.151,100.506,149.071,100.746,144.813,103.987z"/>
	<path class="st104" d="M96.829,128.978c0.001-4.331,0.001-8.663,0.002-12.994c1.637-0.024,2.941,0.268,2.991,2.364
		c0.163,6.753,1.401,13.435,1.091,20.241c-0.142,3.116-1.626,3.579-4.081,3.384C96.831,137.642,96.83,133.31,96.829,128.978z"/>
	<path class="st46" d="M96.83,164.96c-1.513-1.998-1.514-3.996,0-5.993C96.83,160.965,96.83,162.963,96.83,164.96z"/>
	<path class="st105" d="M25.662,64.981c0.009,1.367,0.018,2.734,0.026,4.102c-0.947,0.864-1.772,2.067-2.884,2.466
		c-0.702,0.252-3.232-0.068-2.667-0.899c3.216-4.73-1.758-7.541-2.2-11.32c-0.165-1.414-0.027-2.864-0.027-4.398
		c0.442,0.172,0.601,0.221,0.749,0.293C22.768,57.202,22.877,62.052,25.662,64.981z"/>
	<path class="st106" d="M26.034,144.596c1.158,4.203,4.803,5.734,8.23,7.23c4.266,1.861,6.498,4.816,7.332,9.406
		c0.501,2.754-1.77,2.711-2.376,2.32c-2.221-1.433-5.745-0.472-6.922-3.663c-0.525-1.426-1.975-1.395-2.874-1.503
		c-4.391-0.53-7.138-4.156-11.079-5.598c-1.999-0.731-3.418-3.537-2.221-5.798c2.074-3.919,1.54-7.786,0.767-11.738
		c-0.965-4.93,0.611-9.769,0.409-14.68c-0.06-1.473,1.23-3.027,3.05-2.368c2.313,0.838,4.381,2.748,3.327,5.269
		c-3.041,7.269,1.365,13.779,1.608,20.677c0.006,0.181,0.509,0.345,0.779,0.516C26.062,144.663,26.034,144.596,26.034,144.596z"/>
	<path class="st0" d="M103.84,34.654c-0.057,1.803,0.246,3.367-0.861,4.591c-0.863,0.954-1.653,2.506-3.029,2.238
		c-1.779-0.346-0.94-2.153-1.101-3.352c-0.131-0.976,0.178-2.103-0.202-2.938c-1.349-2.97-0.322-4.204,2.726-4.499
		C105.533,30.293,103.029,33.555,103.84,34.654z"/>
	<path class="st107" d="M180.802,62.007c3.246,0.125,3.582,3.019,3.678,4.953c0.233,4.705,1.874,9.279,1.243,14.039
		c-4.379-1.609-5.906-4.751-6.071-9.375C179.532,68.267,176.733,64.822,180.802,62.007z"/>
	<path class="st107" d="M177.548,78.498c-0.175,0.902-0.61,0.954-1.046,0.74c-0.396-0.194-0.723-0.529-1.08-0.802
		c0.302-0.302,0.725-0.912,0.884-0.85C176.81,77.784,177.214,78.233,177.548,78.498z"/>
	<path class="st58" d="M173.804,151.968c0.567,0.418,0.957,1.114,0.348,1.528c-1.165,0.791-2.394,0.681-3.347-0.528
		C171.805,152.634,172.804,152.301,173.804,151.968z"/>
	<path class="st43" d="M80.835,75.002c-1.068-0.198-2.402-0.064-2.344-1.731c0.008-0.221,0.393-0.607,0.615-0.615
		c1.666-0.057,1.533,1.276,1.731,2.344L80.835,75.002z"/>
	<path class="st108" d="M58.521,244.043c0.534,1.553,0.993,3.137,1.618,4.652c1.098,2.659-1.108,1.992-2.294,2.367
		c-6.031-0.11-6.047-0.153-2.847-7.777c0.443-0.904-0.09-2.738,1.742-2.338C58.178,241.262,58.806,242.502,58.521,244.043z"/>
	<path class="st91" d="M58.521,244.043c-0.856-1.733-1.508-4.413-3.523-0.758c-1.902-3.537-0.427-4.209,2.847-3.356
		C57.928,241.324,61.161,242.2,58.521,244.043z"/>
	<path class="st91" d="M60.843,240.927c-1-0.332-1.999-0.665-2.999-0.997c1.006-1.27,0.64-3.226,2.604-4.677
		C60.102,237.453,60.307,239.218,60.843,240.927z"/>
	<path class="st40" d="M65.84,244.927c0.201,0.724,0.958,1.469,0.113,2.17c-0.252,0.209-0.97,0.209-1.221,0.001
		c-0.844-0.701-0.09-1.446,0.111-2.171C65.175,244.927,65.508,244.927,65.84,244.927z"/>
	<path class="st109" d="M144.813,103.987c-1.071-2.579,4.944-2.793,2.002-5.996c-0.187-2.181,2.3-1.688,2.992-2.99
		c0.669,0.331,1.338,0.661,2.006,0.992c1.227,0.771,2.245,1.752,2.998,2.997c1.673-0.302,3.06-2.034,5.001-1.001
		c3.725-2.896,12.771-2.98,16.529,0.152c1.378,1.148,2.101-0.073,3.08-0.16c6.013-0.534,6.421-0.194,6.249,6.022
		c-2.841,0.953-5.66,0.888-8.662,0.582c-7.069-0.721-14.181,0.994-21.291-0.014c-0.853-0.121-0.847,0.781-0.907,1.417
		c-2.334-0.945-4.667-0.937-7.001,0C146.81,105.32,145.811,104.654,144.813,103.987z"/>
	<path class="st110" d="M149.807,64.904c6.106,0.732,7.508,3.898,3.931,8.884c-5.035,1.221-6.596-0.263-6.772-6.437
		c0.199-1.127,0.558-2.091,1.994-1.958C149.243,65.23,149.525,65.067,149.807,64.904z"/>
	<path class="st55" d="M148.961,65.393c-0.665,0.653-1.329,1.305-1.994,1.958c-0.27-1.114-2.597-1.813-0.991-3.211
		C147.306,62.982,148.251,64.257,148.961,65.393z"/>
	<path class="st103" d="M154.811,98.991c-1.347-0.652-2.347-1.649-2.998-2.997C153.722,96.083,154.722,97.082,154.811,98.991z"/>
	<path class="st111" d="M45.865,138.924c-1.417-1.644-2.169-3.51-1.905-5.715c2.865-3.4,5.805-3.824,8.845-0.221
		C53.668,138.737,52.064,140.109,45.865,138.924z"/>
	<path class="st94" d="M45.865,138.924c5.995,0.448,6.795-0.237,6.94-5.935c2.095,2.657,1.99,5.013-0.958,6.978
		C49.934,139.154,47.369,142.082,45.865,138.924z"/>
	<path class="st112" d="M46.028,65.396c4.789-1.469,6.859,1.002,7.671,5.294c-2.18,1.012-2.055,5.638-6.149,3.74
		C43.575,72.586,42.99,69.591,46.028,65.396z"/>
	<path class="st96" d="M123.821,14.028c2.485,2.779,3.019,6.149,3.004,9.711c-0.026,6.092-0.006,12.185-0.005,18.277
		c-0.004,8.252-0.139,16.507,0.06,24.754c0.068,2.811-0.859,4.726-3.05,6.228c-0.821-0.444-2.991,1.229-2.494-0.635
		c1.639-6.141-1.213-12.065-0.297-18.205c0.452-3.028,2.163-6.631-1.799-9.801c-1.552-1.242-0.362-5.942-0.378-9.068
		c-0.03-5.792,0.004-11.584-0.055-17.376c-0.022-2.162,0.015-4.136,3.016-3.889C122.489,14.026,123.155,14.027,123.821,14.028z"/>
	<path class="st7" d="M59.119,254.313c1.069-0.084,1.538,0.249,1.591,0.993c0.06,0.84-0.215,1.817-1.036,1.859
		c-0.587,0.03-1.219-0.797-1.83-1.242C58.315,255.327,58.787,254.732,59.119,254.313z"/>
	<path class="st40" d="M70.84,256.922c0.235,0.604,0.843,1.519,0.643,1.76c-1.074,1.289-1.481-0.276-2.025-0.735
		c-0.409-0.345-1.728-0.938-0.394-1.666c0.366-0.2,1.172,0.405,1.775,0.64H70.84z"/>
	<path class="st113" d="M155.897,132.975c-0.033,1.323-0.065,2.647-0.098,3.97c-1.424,3.912-4.232,2.697-6.935,1.871
		c-1.41-1.926-2.547-3.932-1.868-6.462C150.253,128.404,153.128,129.93,155.897,132.975z"/>
	<path class="st95" d="M148.864,138.816c2.707,0.841,5.156,0.728,6.935-1.871C154.755,142.265,151.7,140.134,148.864,138.816z"/>
	<path class="st0" d="M119.823,96.992c-2.105,1.92-4.672,0.61-6.997,1C114.931,96.071,117.498,97.381,119.823,96.992z"/>
	<path class="st0" d="M112.825,97.992c-2.332,1.572-4.664,1.572-6.996,0C108.161,97.992,110.493,97.992,112.825,97.992z"/>
	<path class="st0" d="M126.819,96.991c-1.666,0-3.331,0-4.997,0.001C123.487,95.509,125.153,95.509,126.819,96.991z"/>
	<path class="st41" d="M15.862,98.983c-0.334,0.666-0.668,1.332-1.002,1.998c-1.134-0.809-1.453-2.129-0.671-3.003
		C14.924,97.156,15.464,98.322,15.862,98.983z"/>
	<path class="st114" d="M203.724,139.808c0.006-0.575,0.011-1.149,0.017-1.723c1.647-0.009,3.295-0.019,4.941-0.028
		c-0.323,0.602-0.644,1.202-0.966,1.802C206.385,139.841,205.055,139.825,203.724,139.808z"/>
	<path class="st115" d="M162.607,233.889c-6.787,0.693-4.452-3.603-3.813-6.971c0.73-1.147,1.916-0.956,3.013-1.026
		C163.389,228.425,163.931,231.064,162.607,233.889z"/>
	<path class="st56" d="M21.703,98.443c1.061-0.636,2.073-0.617,3.388,0.01C23.813,99.163,22.803,99.244,21.703,98.443z"/>
	<path class="st56" d="M33.364,97.361c-1.506,0.807-2.515,0.807-3.608,0.221C30.698,96.63,31.704,97.003,33.364,97.361z"/>
</g>
</svg>
